<?xml version="1.0" encoding="UTF-8"?>
<svg width="9px" height="10px" viewBox="0 0 9 10" version="1.1" xmlns="http://www.w3.org/2000/svg" xmlns:xlink="http://www.w3.org/1999/xlink">
    <!-- Generator: Sketch 47.1 (45422) - http://www.bohemiancoding.com/sketch -->
    <title>Combined Shape</title>
    <desc>Created with Sketch.</desc>
    <defs></defs>
    <g id="Page-1" stroke="none" stroke-width="1" fill="none" fill-rule="evenodd">
        <g id="Artboard-Copy-68" transform="translate(-199.000000, -507.000000)" fill-rule="nonzero" fill="#068D7D">
            <g id="Cancel-Quiz" transform="translate(113.000000, 503.000000)">
                <path d="M89.2626169,8.80210357 L86.2833616,11.9093706 C85.8914208,12.3436833 85.9199404,12.8382947 86.2833616,13.1935674 C86.6459679,13.5488401 87.2587319,13.5268393 87.5993374,13.1935674 C87.8269783,12.9713724 89.3889553,11.3373145 90.4000001,10.2778582 C91.4110449,11.3373145 92.9730219,12.9713724 93.2006628,13.1935674 C93.5412683,13.5268393 94.1540322,13.5488401 94.5166386,13.1935674 C94.8800598,12.8382947 94.9085794,12.3436833 94.5166386,11.9093706 L91.5373833,8.80210357 C91.5396247,8.77643575 91.540746,8.7506947 91.540746,8.72495364 C91.540746,8.69921191 91.5396247,8.67347018 91.5373831,8.64780391 L94.5166386,5.5405367 C94.9085794,5.10622394 94.8800598,4.61079777 94.5166386,4.25796958 C94.1540322,3.90269686 93.5412683,3.92551254 93.2006628,4.25796958 C92.9730219,4.47907537 91.4110449,6.11350001 90.4000001,7.17331933 C89.3889553,6.11350001 87.8269783,4.47907537 87.5993374,4.25796958 C87.2587319,3.92551254 86.6459679,3.90269686 86.2833616,4.25796958 C85.9199404,4.61079777 85.8914208,5.10622394 86.2833616,5.5405367 L89.262617,8.64780391 C89.2603755,8.67347018 89.2592542,8.69921191 89.2592542,8.72495364 C89.2592542,8.7506947 89.2603755,8.77643575 89.2626169,8.80210357 Z" id="Combined-Shape"></path>
            </g>
        </g>
    </g>
</svg>