<?xml version="1.0" encoding="UTF-8"?>
<svg width="8px" height="13px" viewBox="0 0 8 13" version="1.1" xmlns="http://www.w3.org/2000/svg" xmlns:xlink="http://www.w3.org/1999/xlink">
    <!-- Generator: Sketch 47.1 (45422) - http://www.bohemiancoding.com/sketch -->
    <title>Shape Copy 5</title>
    <desc>Created with Sketch.</desc>
    <defs></defs>
    <g id="Page-1" stroke="none" stroke-width="1" fill="none" fill-rule="evenodd">
        <g id="Artboard-Copy-62" transform="translate(-217.000000, -528.000000)" fill-rule="nonzero" fill="#068D7D">
            <g id="End-Backing" transform="translate(0.000000, 103.000000)">
                <g id="Start-Quiz-Button-Copy" transform="translate(96.000000, 411.000000)">
                    <g id="Next-Module-Group" transform="translate(16.000000, 10.000000)">
                        <path d="M103.316968,7.34776252 C103.752986,6.90174492 104.360009,6.86674354 104.893031,7.34776252 L108.801185,11.0949103 L112.709339,7.34776252 C113.24236,6.86674354 113.850384,6.90174492 114.283401,7.34776252 C114.719418,7.79278007 114.691417,8.54480973 114.283401,8.96282621 C113.877385,9.3808427 109.588216,13.4650038 109.588216,13.4650038 C109.371207,13.6880126 109.086196,13.800017 108.801185,13.800017 C108.516173,13.800017 108.231162,13.6880126 108.012154,13.4650038 C108.012154,13.4650038 103.724984,9.3808427 103.316968,8.96282621 C102.907952,8.54480973 102.880951,7.79278007 103.316968,7.34776252 Z" id="Shape-Copy-5" transform="translate(108.800000, 10.400008) rotate(-90.000000) translate(-108.800000, -10.400008) "></path>
                    </g>
                </g>
            </g>
        </g>
    </g>
</svg>